<svg xmlns="http://www.w3.org/2000/svg" viewBox="0 0 750 750">
    <style>
        .st1{display:inline}.st2{fill:#fff}
    </style>
    <g id="tentacles">
        <path d="M114.802 428.41c7.715 162.01-82.291 203.155-48.86 203.155 43.717 0 97.669-66.704 101.651-151.203 1.893-40.171 3.029-77.735 3.684-111.098h-62.833c1.69 17.605 3.782 37.245 6.358 59.146zM208.665 500.414c7.715 162.01-82.291 203.155-48.86 203.155 43.717 0 97.669-66.704 101.651-151.203 2.729-57.926 3.888-124.206 4.293-183.103h-67.957c1.836 38.488 5.166 82.637 10.873 131.151z"/>
        <path d="M290.372 369.263c1.315 45.52 4.717 101.348 12.156 164.581C310.243 695.855 220.237 737 253.668 737c43.717 0 97.669-66.704 101.651-151.203 3.261-69.2 4.28-150.324 4.451-216.533h-31.876l-37.522-.001zM582.407 480.362c3.982 84.5 57.934 151.203 101.651 151.203 33.431 0-56.575-41.145-48.86-203.155 2.593-22.042 4.695-41.668 6.39-59.146h-62.894c.65 32.86 1.792 70.338 3.713 111.098zM488.544 552.366c3.982 84.5 57.934 151.203 101.651 151.203 33.431 0-56.575-41.145-48.86-203.155 5.708-48.514 9.037-92.664 10.873-131.151h-67.957c.405 58.897 1.564 125.177 4.293 183.103z"/>
        <path d="M390.231 369.263c.171 66.209 1.19 147.333 4.451 216.533C398.663 670.296 452.615 737 496.332 737c33.431 0-56.575-41.145-48.86-203.155 7.439-63.233 10.842-119.062 12.156-164.581h-41.73c.001-.001-10.326-.001-27.667-.001z"/>
    </g>
    <path d="M615.443 231.156c0-63.725 10.286-108.864-28.287-108.864H420.003 162.845c-38.574 0-28.287 45.139-28.287 108.864S-42.881 468.857 23.98 468.857h702.042c66.86 0-110.579-173.976-110.579-237.701z" id="typewriter"/>
    <g id="full">
        <g id="keys_1_">
            <circle class="st2" cx="148.701" cy="340.877" r="23.144"/>
            <circle class="st2" cx="205.275" cy="340.877" r="23.144"/>
            <circle class="st2" cx="261.85" cy="340.877" r="23.144"/>
            <circle class="st2" cx="318.425" cy="340.877" r="23.144"/>
            <circle class="st2" cx="375" cy="340.877" r="23.144"/>
            <circle class="st2" cx="431.575" cy="340.877" r="23.144"/>
            <circle class="st2" cx="488.15" cy="340.877" r="23.144"/>
            <circle class="st2" cx="544.725" cy="340.877" r="23.144"/>
            <circle class="st2" cx="601.299" cy="340.877" r="23.144"/>
            <g>
                <circle class="st2" cx="176.988" cy="279.159" r="23.144"/>
                <circle class="st2" cx="233.563" cy="279.159" r="23.144"/>
                <circle class="st2" cx="290.138" cy="279.159" r="23.144"/>
                <circle class="st2" cx="346.713" cy="279.159" r="23.144"/>
                <circle class="st2" cx="403.287" cy="279.159" r="23.144"/>
                <circle class="st2" cx="459.862" cy="279.159" r="23.144"/>
                <circle class="st2" cx="516.437" cy="279.159" r="23.144"/>
                <circle class="st2" cx="573.012" cy="279.159" r="23.144"/>
            </g>
            <g>
                <circle class="st2" cx="120.413" cy="402.595" r="23.144"/>
                <circle class="st2" cx="176.988" cy="402.595" r="23.144"/>
                <circle class="st2" cx="233.563" cy="402.595" r="23.144"/>
                <circle class="st2" cx="516.437" cy="402.595" r="23.144"/>
                <circle class="st2" cx="573.012" cy="402.595" r="23.144"/>
                <circle class="st2" cx="629.587" cy="402.595" r="23.144"/>
                <path class="st2" d="M459.862 379.451H290.138c-12.782 0-23.144 10.362-23.144 23.144 0 12.782 10.362 23.144 23.144 23.144h169.725c12.782 0 23.144-10.362 23.144-23.144 0-12.782-10.362-23.144-23.145-23.144z"/>
            </g>
        </g>
        <g id="page">
            <path class="st2" d="M177.101 13h384.473c3.194 0 4.298 2.586 2.801 5.775-31.496 66.868 37.446 133.737 5.95 200.605-1.497 3.19-5.564 5.775-8.75 5.775H177.102c-3.194 0-4.297-2.586-2.801-5.775 31.496-66.868-37.446-133.737-5.95-200.605 1.496-3.189 5.564-5.775 8.75-5.775z"/>
            <path d="M177.101 13h384.473c3.194 0 4.298 2.586 2.801 5.775-31.496 66.868 37.446 133.737 5.95 200.605-1.497 3.19-5.564 5.775-8.75 5.775H177.102c-3.194 0-4.297-2.586-2.801-5.775 31.496-66.868-37.446-133.737-5.95-200.605 1.496-3.189 5.564-5.775 8.75-5.775z" fill="none" stroke="#000" stroke-width="6.926" stroke-miterlimit="10"/>
        </g>
        <g id="text">
            <path d="M278.889 165.955V62.395c0-3.48 0-9.956-6.608-9.956-2.817 0-4.252 1.631-5.518 3.069l-.298.338c-2.196 2.578-6.878 3.014-11.008 3.398-1.633.152-3.176.296-4.583.559l-1.932.362 2.107 11.94 13.985-1.864v39.429c-5.273-1.476-10.68-2.697-15.549-2.697-21.214 0-34.346 19.4-34.346 37.375 0 20.08 15.408 36.417 34.346 36.417 6.133 0 10.864-1.568 15.549-3.471v1.559h26.288v-12.899h-12.433zm-13.854-42.445v39.578c-4.486 3.048-9.867 4.781-14.911 4.781-12.926 0-20.65-11.878-20.65-23.361 0-14.504 9.147-24.634 22.244-24.634 4.35-.001 8.932 1.253 13.317 3.636zM367.472 121.219c-3.15-9.053-9.702-14.245-17.975-14.245-10.737 0-18.843 6.047-26.681 11.895l-.027.02v-4.509c0-3.48 0-9.956-6.609-9.956-2.816 0-4.249 1.629-5.515 3.067l-.204.23c-3.242 2.901-8.068 3.429-12.736 3.72l-2.218.138 2.153 12.201 11.275-1.545v43.719h-13.868v12.899h56.575v-12.899H322.79v-30.282c11.467-10.195 20.595-15.8 25.751-15.8 2.575 0 3.82 2.743 5.179 6.328l.859 2.255 13.516-5.451-.623-1.785zM429.152 165.955v-37.068c0-16.383-6.053-21.912-23.984-21.912-10.369 0-22.074 3.474-32.113 9.531l-.96.579v18.411h13.857v-10.308c5.695-3.527 12.635-5.314 20.649-5.314 3.744 0 6.141.586 7.327 1.792 1.51 1.534 1.459 4.633 1.395 8.557-.014.849-.028 1.733-.028 2.649v2.22c-10.031.324-19.224.874-28.75 3.178-10.511 2.438-22.577 7.162-22.577 22.18 0 12.342 9.539 20.316 24.301 20.316 8.472 0 16.907-1.78 27.026-5.736v3.824h27.086v-12.899h-13.229zm-13.857-18.426v13.241c-7.491 3.415-17.05 7.098-26.548 7.098-9.364 0-10.447-4.234-10.447-7.419 0-5.859 4.173-7.988 11.869-9.866 6.693-1.61 14.927-2.612 25.126-3.054zM522.219 165.955l-24.197-24.198 18.813-19.972h12.767v-12.897h-38.085v12.897h7.214l-10.05 10.486-10.595-10.486h8.794v-12.897h-39.36v12.897h11.53l20.364 20.221-22.48 23.949h-11.009v12.898h40.955v-12.898h-11.892l13.773-14.612 14.612 14.612h-10.582v12.898h42.069v-12.898z"/>
        </g>
    </g>
</svg>
