<svg xmlns="http://www.w3.org/2000/svg" viewBox="0 0 750 750">
    <style>
        @media (max-width:350px){#small{display:block}#full{display:none}}.st1{display:inline}.st2{fill:#fff}
    </style>
    <g id="tentacles">
        <path d="M109.174 429.565c7.882 165.514-84.071 207.55-49.917 207.55 44.663 0 99.782-68.147 103.85-154.474 1.934-41.04 3.095-79.416 3.764-113.502h-64.192c1.725 17.986 3.863 38.052 6.495 60.426zM205.067 503.127c7.882 165.514-84.071 207.55-49.917 207.55 44.663 0 99.782-68.147 103.85-154.474 2.789-59.179 3.972-126.893 4.386-187.064h-69.427c1.875 39.32 5.277 84.425 11.108 133.988z"/>
        <path d="M288.541 369.139c1.343 46.504 4.819 103.54 12.419 168.142 7.882 165.514-84.071 207.55-49.917 207.55 44.663 0 99.782-68.146 103.85-154.474 3.331-70.697 4.372-153.576 4.547-221.217h-32.566l-38.333-.001zM586.893 482.641c4.068 86.328 59.187 154.474 103.85 154.474 34.154 0-57.799-42.035-49.917-207.55 2.649-22.519 4.797-42.569 6.528-60.426H583.1a4171.177 4171.177 0 0 0 3.793 113.502zM491 556.203c4.068 86.328 59.187 154.474 103.85 154.474 34.154 0-57.799-42.035-49.917-207.55 5.831-49.563 9.233-94.668 11.108-133.988h-69.427c.414 60.171 1.598 127.885 4.386 187.064z"/>
        <path d="M390.56 369.139c.174 67.641 1.215 150.52 4.547 221.217 4.068 86.328 59.187 154.474 103.85 154.474 34.154 0-57.799-42.035-49.917-207.55 7.6-64.601 11.076-121.637 12.419-168.142h-42.632l-28.267.001z"/>
    </g>
    <path d="M620.644 228.044c0-65.104 10.509-111.219-28.899-111.219H420.976 158.255c-39.408 0-28.899 46.115-28.899 111.219 0 65.104-181.278 242.843-112.97 242.843h717.229c68.307 0-112.971-177.739-112.971-242.843z" id="typewriter"/>
    <g id="small" display="none">
        <g id="keys" class="st1">
            <circle class="st2" cx="147.837" cy="317.363" r="30.977"/>
            <circle class="st2" cx="223.558" cy="317.363" r="30.977"/>
            <circle class="st2" cx="299.279" cy="317.363" r="30.977"/>
            <circle class="st2" cx="375" cy="317.363" r="30.977"/>
            <circle class="st2" cx="450.721" cy="317.363" r="30.977"/>
            <circle class="st2" cx="526.442" cy="317.363" r="30.977"/>
            <circle class="st2" cx="602.163" cy="317.363" r="30.977"/>
            <circle class="st2" cx="109.977" cy="399.968" r="30.977"/>
            <circle class="st2" cx="185.698" cy="399.968" r="30.977"/>
            <circle class="st2" cx="564.302" cy="399.968" r="30.977"/>
            <circle class="st2" cx="640.023" cy="399.968" r="30.977"/>
            <path class="st2" d="M488.581 368.991H261.419c-17.108 0-30.977 13.869-30.977 30.977s13.869 30.977 30.977 30.977h227.163c17.108 0 30.977-13.869 30.977-30.977-.001-17.108-13.87-30.977-30.978-30.977z"/>
        </g>
        <g id="page_1_" class="st1">
            <path class="st2" d="M194.775 30.5h354.878c3.193 0 4.499 2.586 3.188 5.775-29.604 71.816 34.778 143.633 5.174 215.449-1.31 3.19-5.175 5.775-8.362 5.775H194.775c-3.193 0-4.499-2.586-3.188-5.775 29.604-71.816-34.778-143.633-5.174-215.449 1.311-3.189 5.176-5.775 8.362-5.775z"/>
            <path d="M194.775 30.5h354.878c3.193 0 4.499 2.586 3.188 5.775-29.604 71.816 34.778 143.633 5.174 215.449-1.31 3.19-5.175 5.775-8.362 5.775H194.775c-3.193 0-4.499-2.586-3.188-5.775 29.604-71.816-34.778-143.633-5.174-215.449 1.311-3.189 5.176-5.775 8.362-5.775z" fill="none" stroke="#000" stroke-width="15.628" stroke-miterlimit="10"/>
        </g>
    </g>
    <g id="full">
        <g id="keys_1_">
            <circle class="st2" cx="143.805" cy="340.139" r="23.645"/>
            <circle class="st2" cx="201.604" cy="340.139" r="23.645"/>
            <circle class="st2" cx="259.403" cy="340.139" r="23.645"/>
            <circle class="st2" cx="317.201" cy="340.139" r="23.645"/>
            <circle class="st2" cx="375" cy="340.139" r="23.645"/>
            <circle class="st2" cx="432.799" cy="340.139" r="23.645"/>
            <circle class="st2" cx="490.597" cy="340.139" r="23.645"/>
            <circle class="st2" cx="548.396" cy="340.139" r="23.645"/>
            <circle class="st2" cx="606.195" cy="340.139" r="23.645"/>
            <g>
                <circle class="st2" cx="172.705" cy="277.086" r="23.645"/>
                <circle class="st2" cx="230.503" cy="277.086" r="23.645"/>
                <circle class="st2" cx="288.302" cy="277.086" r="23.645"/>
                <circle class="st2" cx="346.101" cy="277.086" r="23.645"/>
                <circle class="st2" cx="403.899" cy="277.086" r="23.645"/>
                <circle class="st2" cx="461.698" cy="277.086" r="23.645"/>
                <circle class="st2" cx="519.497" cy="277.086" r="23.645"/>
                <circle class="st2" cx="577.295" cy="277.086" r="23.645"/>
            </g>
            <g>
                <circle class="st2" cx="114.906" cy="403.192" r="23.645"/>
                <circle class="st2" cx="172.705" cy="403.192" r="23.645"/>
                <circle class="st2" cx="230.503" cy="403.192" r="23.645"/>
                <circle class="st2" cx="519.497" cy="403.192" r="23.645"/>
                <circle class="st2" cx="577.295" cy="403.192" r="23.645"/>
                <circle class="st2" cx="635.094" cy="403.192" r="23.645"/>
                <path class="st2" d="M461.698 379.547H288.302c-13.059 0-23.645 10.586-23.645 23.645s10.586 23.645 23.645 23.645h173.396c13.059 0 23.645-10.586 23.645-23.645s-10.586-23.645-23.645-23.645z"/>
            </g>
        </g>
        <g id="page">
            <path class="st2" d="M172.695 5.169h393.04c3.193 0 4.298 2.586 2.795 5.775-32.342 68.398 38.303 136.796 5.961 205.194-1.503 3.19-5.57 5.775-8.756 5.775h-393.04c-3.193 0-4.298-2.586-2.795-5.775 32.342-68.398-38.303-136.796-5.961-205.194 1.503-3.189 5.57-5.775 8.756-5.775z"/>
            <path d="M172.695 5.169h393.04c3.193 0 4.298 2.586 2.795 5.775-32.342 68.398 38.303 136.796 5.961 205.194-1.503 3.19-5.57 5.775-8.756 5.775h-393.04c-3.193 0-4.298-2.586-2.795-5.775 32.342-68.398-38.303-136.796-5.961-205.194 1.503-3.189 5.57-5.775 8.756-5.775z" fill="none" stroke="#000" stroke-width="7.076" stroke-miterlimit="10"/>
        </g>
        <g id="text">
            <path d="M276.81 161.432V55.633c0-3.555 0-10.171-6.751-10.171-2.878 0-4.344 1.666-5.637 3.136l-.304.345c-2.243 2.634-7.026 3.079-11.247 3.472-1.668.156-3.244.302-4.682.572l-1.973.37 2.153 12.199 14.287-1.904v40.282c-5.387-1.508-10.911-2.755-15.885-2.755-21.673 0-35.089 19.82-35.089 38.183 0 20.514 15.741 37.204 35.089 37.204 6.266 0 11.099-1.602 15.885-3.546v1.592h26.857v-13.178H276.81zm-14.154-43.363v40.434c-4.583 3.114-10.08 4.884-15.234 4.884-13.205 0-21.097-12.135-21.097-23.866 0-14.818 9.345-25.167 22.725-25.167 4.445 0 9.126 1.282 13.606 3.715zM367.309 115.729c-3.218-9.248-9.912-14.553-18.364-14.553-10.97 0-19.25 6.178-27.258 12.152l-.028.021v-4.606c0-3.555 0-10.171-6.752-10.171-2.877 0-4.341 1.664-5.634 3.133l-.208.235c-3.313 2.963-8.242 3.503-13.011 3.801l-2.266.141 2.199 12.465 11.518-1.578v44.665h-14.168v13.178h57.798v-13.178h-29.476v-30.937c11.715-10.416 21.04-16.142 26.308-16.142 2.631 0 3.903 2.802 5.291 6.465l.877 2.304 13.809-5.569-.635-1.826zM430.323 161.432v-37.87c0-16.737-6.183-22.386-24.503-22.386-10.594 0-22.552 3.549-32.807 9.737l-.981.592v18.809h14.157v-10.531c5.818-3.603 12.909-5.429 21.095-5.429 3.825 0 6.274.599 7.485 1.831 1.542 1.567 1.491 4.734 1.426 8.742-.014.868-.029 1.771-.029 2.706v2.269c-10.248.331-19.64.893-29.372 3.247-10.738 2.491-23.065 7.317-23.065 22.66 0 12.609 9.745 20.756 24.826 20.756 8.655 0 17.272-1.818 27.611-5.86v3.907h27.672v-13.178h-13.515zm-14.157-18.823v13.527c-7.653 3.488-17.419 7.252-27.122 7.252-9.566 0-10.673-4.326-10.673-7.579 0-5.986 4.264-8.161 12.126-10.08 6.838-1.646 15.25-2.669 25.669-3.12zM525.404 161.432l-24.721-24.721 19.22-20.403h13.044v-13.177h-38.91v13.177h7.37l-10.266 10.713-10.825-10.713h8.984v-13.177h-40.211v13.177h11.779l20.805 20.658-22.966 24.466h-11.248v13.178H489.3v-13.178h-12.149l14.071-14.927 14.928 14.927h-10.811v13.178h42.979v-13.178z"/>
        </g>
    </g>
</svg>
