<svg xmlns="http://www.w3.org/2000/svg" viewBox="0 0 750 750">
  <defs>
    <style>
      .cls-1 {
        fill: #fff;
      }

      .cls-2 {
        fill: none;
        stroke: #000;
        stroke-miterlimit: 10;
        stroke-width: 7px;
      }
    </style>
  </defs>
  <title>DraxLogo</title>
  <g id="tentacles">
    <g>
      <path d="M145.26,436.53c6.81,143.05-72.66,179.38-43.14,179.38,38.6,0,86.23-58.9,89.75-133.51,1.67-35.47,2.67-68.64,3.25-98.09H139.64C141.14,399.85,143,417.19,145.26,436.53Z"/>
      <path d="M228.13,500.11c6.82,143-72.65,179.37-43.14,179.37,38.6,0,86.24-58.89,89.76-133.5,2.41-51.15,3.43-109.67,3.79-161.67h-60C220.15,418.29,223.09,457.27,228.13,500.11Z"/>
      <path d="M300.28,384.31c1.16,40.19,4.16,89.48,10.73,145.31,6.81,143-72.66,179.38-43.14,179.38,38.6,0,86.24-58.9,89.75-133.51,2.88-61.1,3.78-132.72,3.93-191.18H300.28Z"/>
      <path d="M558.13,482.4c3.52,74.61,51.15,133.51,89.75,133.51,29.52,0-50-36.33-43.14-179.38,2.29-19.46,4.15-36.79,5.64-52.22H554.85C555.43,413.32,556.43,446.41,558.13,482.4Z"/>
      <path d="M475.25,546c3.52,74.61,51.16,133.5,89.76,133.5,29.51,0-50-36.33-43.14-179.37,5-42.84,8-81.82,9.6-115.8h-60C471.82,436.31,472.84,494.83,475.25,546Z"/>
      <path d="M388.45,384.31c.15,58.46,1.05,130.08,3.93,191.18C395.89,650.1,443.53,709,482.13,709c29.52,0-49.95-36.33-43.14-179.38,6.57-55.83,9.57-105.12,10.73-145.31H388.45Z"/>
    </g>
  </g>
  <g id="typewriter">
    <path d="M587.3,226.12c0-56.26,9.08-96.12-25-96.12H187.68c-34.06,0-25,39.86-25,96.12S6,418.36,65.06,418.36H684.94C744,418.36,587.3,282.39,587.3,226.12Z"/>
  </g>
  <g id="keys">
    <g>
      <g>
        <circle class="cls-1" cx="175.19" cy="323" r="20.44"/>
        <circle class="cls-1" cx="225.14" cy="323" r="20.44"/>
        <circle class="cls-1" cx="275.09" cy="323" r="20.44"/>
        <circle class="cls-1" cx="325.05" cy="323" r="20.44"/>
        <circle class="cls-1" cx="375" cy="323" r="20.44"/>
        <circle class="cls-1" cx="424.95" cy="323" r="20.44"/>
        <circle class="cls-1" cx="474.91" cy="323" r="20.44"/>
        <circle class="cls-1" cx="524.86" cy="323" r="20.44"/>
        <circle class="cls-1" cx="574.81" cy="323" r="20.44"/>
      </g>
      <g>
        <circle class="cls-1" cx="200.16" cy="268.51" r="20.44"/>
        <circle class="cls-1" cx="250.12" cy="268.51" r="20.44"/>
        <circle class="cls-1" cx="300.07" cy="268.51" r="20.44"/>
        <circle class="cls-1" cx="350.02" cy="268.51" r="20.44"/>
        <circle class="cls-1" cx="399.98" cy="268.51" r="20.44"/>
        <circle class="cls-1" cx="449.93" cy="268.51" r="20.44"/>
        <circle class="cls-1" cx="499.88" cy="268.51" r="20.44"/>
        <circle class="cls-1" cx="549.84" cy="268.51" r="20.44"/>
      </g>
      <g>
        <circle class="cls-1" cx="150.21" cy="377.49" r="20.44"/>
        <circle class="cls-1" cx="200.16" cy="377.49" r="20.44"/>
        <circle class="cls-1" cx="250.12" cy="377.49" r="20.44"/>
        <circle class="cls-1" cx="499.88" cy="377.49" r="20.44"/>
        <circle class="cls-1" cx="549.84" cy="377.49" r="20.44"/>
        <circle class="cls-1" cx="599.79" cy="377.49" r="20.44"/>
        <path class="cls-1" d="M449.93,357.06H300.07a20.44,20.44,0,0,0,0,40.87H449.93a20.44,20.44,0,0,0,0-40.87Z"/>
      </g>
    </g>
  </g>
  <g id="page">
    <g>
      <path class="cls-1" d="M200.94,33.5H539.06c3.19,0,4.29,2.59,2.83,5.78C515,97.87,574.7,156.46,547.78,215.05a10.75,10.75,0,0,1-8.72,5.77H200.94c-3.19,0-4.29-2.58-2.83-5.77C225,156.46,165.3,97.87,192.22,39.28A10.77,10.77,0,0,1,200.94,33.5Z"/>
      <path class="cls-2" d="M200.94,33.5H539.06c3.19,0,4.29,2.59,2.83,5.78C515,97.87,574.7,156.46,547.78,215.05a10.75,10.75,0,0,1-8.72,5.77H200.94c-3.19,0-4.29-2.58-2.83-5.77C225,156.46,165.3,97.87,192.22,39.28A10.77,10.77,0,0,1,200.94,33.5Z"/>
    </g>
  </g>
  <g id="text">
    <g>
      <path d="M278.2,174.68V70.38c0-3.5,0-10-6.65-10-2.84,0-4.28,1.64-5.56,3.09l-.3.34c-2.21,2.59-6.92,3-11.09,3.42-1.64.15-3.19.3-4.61.56l-2,.37,2.13,12,14.08-1.87V118c-5.31-1.49-10.76-2.72-15.66-2.72-21.36,0-34.59,19.54-34.59,37.64,0,20.22,15.52,36.68,34.59,36.68,6.18,0,10.94-1.58,15.66-3.5v1.57h26.48v-13Zm-13.95-42.75v39.86a27.38,27.38,0,0,1-15,4.82c-13,0-20.79-12-20.79-23.53,0-14.61,9.21-24.81,22.4-24.81A28.34,28.34,0,0,1,264.25,131.93Z"/>
      <path d="M367.42,129.63c-3.17-9.12-9.77-14.35-18.11-14.35-10.81,0-19,6.09-26.87,12l0,0v-4.54c0-3.51,0-10-6.66-10-2.84,0-4.28,1.64-5.55,3.09L310,116c-3.26,2.92-8.12,3.46-12.83,3.75l-2.23.14,2.17,12.29,11.35-1.56v44h-14v13h57v-13H322.42v-30.5c11.55-10.27,20.74-15.91,25.93-15.91,2.59,0,3.85,2.76,5.22,6.37l.86,2.27L368,131.42Z"/>
      <path d="M429.54,174.68V137.35c0-16.5-6.1-22.07-24.16-22.07-10.44,0-22.23,3.5-32.34,9.6l-1,.58V144h14V133.62c5.74-3.55,12.73-5.35,20.8-5.35,3.77,0,6.18.59,7.38,1.8,1.52,1.55,1.46,4.67,1.4,8.62,0,.86,0,1.75,0,2.67v2.24c-10.1.32-19.36.88-28.95,3.2-10.59,2.45-22.74,7.21-22.74,22.34,0,12.43,9.61,20.46,24.47,20.46,8.54,0,17-1.8,27.22-5.78v3.85h27.28v-13Zm-14-18.56v13.34c-7.54,3.44-17.17,7.15-26.74,7.15s-10.52-4.27-10.52-7.47c0-5.91,4.21-8,12-9.94A135.32,135.32,0,0,1,415.58,156.12Z"/>
      <polygon points="523.27 174.68 498.9 150.31 517.85 130.2 530.71 130.2 530.71 117.21 492.35 117.21 492.35 130.2 499.61 130.2 489.49 140.76 478.82 130.2 487.68 130.2 487.68 117.21 448.04 117.21 448.04 130.2 459.65 130.2 480.16 150.56 457.52 174.68 446.43 174.68 446.43 187.67 487.68 187.67 487.68 174.68 475.7 174.68 489.57 159.97 504.29 174.68 493.63 174.68 493.63 187.67 536 187.67 536 174.68 523.27 174.68"/>
    </g>
  </g>
</svg>
