<svg xmlns="http://www.w3.org/2000/svg" viewBox="0 0 750 750">
  <defs>
    <style>
      .cls-1 {
        fill: #fff;
      }

      .cls-2 {
        fill: none;
        stroke: #000;
        stroke-miterlimit: 10;
        stroke-width: 7px;
      }
    </style>
  </defs>
  <title>DraxLogo</title>
  <g id="tentacles">
    <g>
      <path d="M112,431.58c7.79,163.74-83.17,205.33-49.39,205.33,44.19,0,98.72-67.42,102.74-152.82,1.92-40.6,3.06-78.57,3.73-112.29H105.59C107.3,389.59,109.41,409.44,112,431.58Z"/>
      <path d="M206.88,504.35c7.8,163.75-83.17,205.33-49.38,205.33,44.19,0,98.72-67.41,102.74-152.82,2.76-58.54,3.93-125.53,4.34-185.06H195.9C197.75,410.7,201.12,455.32,206.88,504.35Z"/>
      <path d="M289.47,371.8c1.32,46,4.76,102.43,12.28,166.34,7.8,163.75-83.17,205.33-49.38,205.33,44.18,0,98.71-67.42,102.74-152.82,3.29-69.94,4.32-151.93,4.5-218.85H289.47Z"/>
      <path d="M584.63,484.09c4,85.4,58.55,152.82,102.74,152.82,33.78,0-57.18-41.59-49.39-205.33,2.62-22.28,4.75-42.12,6.46-59.78H580.87C581.53,405,582.69,442.89,584.63,484.09Z"/>
      <path d="M489.76,556.86c4,85.41,58.55,152.82,102.74,152.82,33.79,0-57.18-41.58-49.38-205.33,5.76-49,9.13-93.65,11-132.55H485.42C485.83,431.33,487,498.32,489.76,556.86Z"/>
      <path d="M390.39,371.8c.18,66.92,1.21,148.91,4.5,218.85,4,85.4,58.56,152.82,102.74,152.82,33.79,0-57.18-41.58-49.38-205.33,7.52-63.91,11-120.33,12.28-166.34H390.39Z"/>
    </g>
  </g>
  <g id="typewriter">
    <path d="M618,232.21c0-64.4,10.39-110-28.59-110H160.57c-39,0-28.59,45.63-28.59,110S-47.36,472.46,20.22,472.46H729.78C797.36,472.46,618,296.62,618,232.21Z"/>
  </g>
  <g id="keys">
    <g>
      <g>
        <circle class="cls-1" cx="146.28" cy="343.11" r="23.39"/>
        <circle class="cls-1" cx="203.46" cy="343.11" r="23.39"/>
        <circle class="cls-1" cx="260.64" cy="343.11" r="23.39"/>
        <circle class="cls-1" cx="317.82" cy="343.11" r="23.39"/>
        <circle class="cls-1" cx="375" cy="343.11" r="23.39"/>
        <circle class="cls-1" cx="432.18" cy="343.11" r="23.39"/>
        <circle class="cls-1" cx="489.36" cy="343.11" r="23.39"/>
        <circle class="cls-1" cx="546.54" cy="343.11" r="23.39"/>
        <circle class="cls-1" cx="603.72" cy="343.11" r="23.39"/>
      </g>
      <g>
        <circle class="cls-1" cx="174.87" cy="280.73" r="23.39"/>
        <circle class="cls-1" cx="232.05" cy="280.73" r="23.39"/>
        <circle class="cls-1" cx="289.23" cy="280.73" r="23.39"/>
        <circle class="cls-1" cx="346.41" cy="280.73" r="23.39"/>
        <circle class="cls-1" cx="403.59" cy="280.73" r="23.39"/>
        <circle class="cls-1" cx="460.77" cy="280.73" r="23.39"/>
        <circle class="cls-1" cx="517.95" cy="280.73" r="23.39"/>
        <circle class="cls-1" cx="575.13" cy="280.73" r="23.39"/>
      </g>
      <g>
        <circle class="cls-1" cx="117.69" cy="405.49" r="23.39"/>
        <circle class="cls-1" cx="174.87" cy="405.49" r="23.39"/>
        <circle class="cls-1" cx="232.05" cy="405.49" r="23.39"/>
        <circle class="cls-1" cx="517.95" cy="405.49" r="23.39"/>
        <circle class="cls-1" cx="575.13" cy="405.49" r="23.39"/>
        <circle class="cls-1" cx="632.31" cy="405.49" r="23.39"/>
        <path class="cls-1" d="M460.77,382.1H289.23a23.39,23.39,0,0,0,0,46.78H460.77a23.39,23.39,0,1,0,0-46.78Z"/>
      </g>
    </g>
  </g>
  <g id="page">
    <g>
      <path class="cls-1" d="M174.92,11.72H563.63c3.2,0,4.3,2.59,2.8,5.78-31.91,67.62,37.87,135.25,6,202.87-1.5,3.19-5.57,5.78-8.76,5.78H174.92c-3.19,0-4.3-2.59-2.8-5.78,31.92-67.62-37.87-135.25-6-202.87C167.67,14.31,171.73,11.72,174.92,11.72Z"/>
      <path class="cls-2" d="M174.92,11.72H563.63c3.2,0,4.3,2.59,2.8,5.78-31.91,67.62,37.87,135.25,6,202.87-1.5,3.19-5.57,5.78-8.76,5.78H174.92c-3.19,0-4.3-2.59-2.8-5.78,31.92-67.62-37.87-135.25-6-202.87C167.67,14.31,171.73,11.72,174.92,11.72Z"/>
    </g>
  </g>
  <g id="text">
    <g>
      <path d="M277.86,166.31V61.65c0-3.52,0-10.07-6.68-10.07-2.85,0-4.3,1.65-5.58,3.11l-.3.34c-2.22,2.6-6.95,3-11.12,3.43-1.65.16-3.21.3-4.63.57l-2,.36,2.13,12.07,14.14-1.88v39.85c-5.33-1.49-10.8-2.73-15.72-2.73-21.44,0-34.71,19.61-34.71,37.78,0,20.29,15.57,36.8,34.71,36.8,6.2,0,11-1.58,15.72-3.5v1.57h26.57v-13Zm-14-42.9v40a27.47,27.47,0,0,1-15.07,4.83c-13.07,0-20.87-12-20.87-23.61,0-14.66,9.24-24.9,22.48-24.9A28.54,28.54,0,0,1,263.86,123.41Z"/>
      <path d="M367.39,121.1c-3.18-9.15-9.8-14.4-18.17-14.4-10.85,0-19,6.11-27,12l0,0v-4.55c0-3.52,0-10.06-6.68-10.06-2.85,0-4.29,1.64-5.57,3.09l-.21.24c-3.28,2.93-8.15,3.46-12.87,3.76l-2.24.14,2.17,12.33,11.4-1.56v44.18h-14v13h57.18v-13H322.23v-30.6c11.59-10.31,20.82-16,26-16,2.6,0,3.86,2.77,5.23,6.39l.87,2.28L368,122.9Z"/>
      <path d="M429.73,166.31V128.85c0-16.56-6.12-22.15-24.24-22.15-10.48,0-22.31,3.51-32.46,9.63l-1,.59v18.61h14V125.11c5.76-3.56,12.77-5.37,20.87-5.37,3.78,0,6.21.59,7.4,1.81,1.53,1.55,1.48,4.68,1.41,8.65,0,.86,0,1.75,0,2.68v2.24c-10.14.33-19.43.88-29.06,3.21-10.63,2.47-22.82,7.24-22.82,22.42,0,12.47,9.64,20.53,24.56,20.53,8.56,0,17.09-1.8,27.32-5.79v3.86H443.1v-13Zm-14-18.62v13.38c-7.57,3.45-17.24,7.18-26.84,7.18s-10.55-4.28-10.55-7.5c0-5.92,4.21-8.07,12-10A135.47,135.47,0,0,1,415.73,147.69Z"/>
      <polygon points="523.8 166.31 499.34 141.86 518.35 121.67 531.26 121.67 531.26 108.64 492.76 108.64 492.76 121.67 500.06 121.67 489.9 132.27 479.19 121.67 488.08 121.67 488.08 108.64 448.3 108.64 448.3 121.67 459.95 121.67 480.53 142.11 457.81 166.31 446.68 166.31 446.68 179.35 488.08 179.35 488.08 166.31 476.06 166.31 489.98 151.55 504.75 166.31 494.05 166.31 494.05 179.35 536.57 179.35 536.57 166.31 523.8 166.31"/>
    </g>
  </g>
</svg>
