<svg xmlns="http://www.w3.org/2000/svg" viewBox="0 0 750 750">
    <style>
        .st0{fill:#fff}.st3{display:inline}
    </style>
    <g id="tentacles">
        <path d="M114.802 428.41c7.715 162.01-82.291 203.155-48.86 203.155 43.717 0 97.669-66.704 101.651-151.203 1.893-40.171 3.029-77.735 3.684-111.098h-62.833c1.69 17.605 3.782 37.245 6.358 59.146zM208.665 500.414c7.715 162.01-82.291 203.155-48.86 203.155 43.717 0 97.669-66.704 101.651-151.203 2.729-57.926 3.888-124.206 4.293-183.103h-67.957c1.836 38.488 5.166 82.637 10.873 131.151z"/>
        <path d="M290.372 369.263c1.315 45.52 4.717 101.348 12.156 164.581C310.243 695.855 220.237 737 253.668 737c43.717 0 97.669-66.704 101.651-151.203 3.261-69.2 4.28-150.324 4.451-216.533h-31.876l-37.522-.001zM582.407 480.362c3.982 84.5 57.934 151.203 101.651 151.203 33.431 0-56.575-41.145-48.86-203.155 2.593-22.042 4.695-41.668 6.39-59.146h-62.894c.65 32.86 1.792 70.338 3.713 111.098zM488.544 552.366c3.982 84.5 57.934 151.203 101.651 151.203 33.431 0-56.575-41.145-48.86-203.155 5.708-48.514 9.037-92.664 10.873-131.151h-67.957c.405 58.897 1.564 125.177 4.293 183.103z"/>
        <path d="M390.231 369.263c.171 66.209 1.19 147.333 4.451 216.533C398.663 670.296 452.615 737 496.332 737c33.431 0-56.575-41.145-48.86-203.155 7.439-63.233 10.842-119.062 12.156-164.581h-41.73c.001-.001-10.326-.001-27.667-.001z"/>
    </g>
    <path d="M615.443 231.156c0-63.725 10.286-108.864-28.287-108.864H420.003 162.845c-38.574 0-28.287 45.139-28.287 108.864S-42.881 468.857 23.98 468.857h702.042c66.86 0-110.579-173.976-110.579-237.701z" id="typewriter"/>
    <g id="small">
        <g id="keys">
            <circle class="st0" cx="147.837" cy="317.363" r="30.977"/>
            <circle class="st0" cx="223.558" cy="317.363" r="30.977"/>
            <circle class="st0" cx="299.279" cy="317.363" r="30.977"/>
            <circle class="st0" cx="375" cy="317.363" r="30.977"/>
            <circle class="st0" cx="450.721" cy="317.363" r="30.977"/>
            <circle class="st0" cx="526.442" cy="317.363" r="30.977"/>
            <circle class="st0" cx="602.163" cy="317.363" r="30.977"/>
            <circle class="st0" cx="109.977" cy="399.968" r="30.977"/>
            <circle class="st0" cx="185.698" cy="399.968" r="30.977"/>
            <circle class="st0" cx="564.302" cy="399.968" r="30.977"/>
            <circle class="st0" cx="640.023" cy="399.968" r="30.977"/>
            <path class="st0" d="M488.581 368.991H261.419c-17.108 0-30.977 13.869-30.977 30.977s13.869 30.977 30.977 30.977h227.163c17.108 0 30.977-13.869 30.977-30.977-.001-17.108-13.87-30.977-30.978-30.977z"/>
        </g>
        <g id="page_1_">
            <path class="st0" d="M194.775 30.5h354.878c3.193 0 4.499 2.586 3.188 5.775-29.604 71.816 34.778 143.633 5.174 215.449-1.31 3.19-5.175 5.775-8.362 5.775H194.775c-3.193 0-4.499-2.586-3.188-5.775 29.604-71.816-34.778-143.633-5.174-215.449 1.311-3.189 5.176-5.775 8.362-5.775z"/>
            <path d="M194.775 30.5h354.878c3.193 0 4.499 2.586 3.188 5.775-29.604 71.816 34.778 143.633 5.174 215.449-1.31 3.19-5.175 5.775-8.362 5.775H194.775c-3.193 0-4.499-2.586-3.188-5.775 29.604-71.816-34.778-143.633-5.174-215.449 1.311-3.189 5.176-5.775 8.362-5.775z" fill="none" stroke="#000" stroke-width="15.628" stroke-miterlimit="10"/>
        </g>
    </g>
</svg>
